# xmcd
#
# Track frame offsets: 
#        150
#        12127
#        24977
#        38797
#        48592
#        67007
#        79277
#        91490
#        102290
#        116147
#        125612
#        134360
#        149167
#        172107
#        186005
#        198205
#        212740
#        228037
#        239860
#        250900
#        261695
#        274467
#        285875
#
# Disc length: 3994 seconds
#
# Revision: 1
# Processed by: cddbd v1.5.2PL0 Copyright (c) Steve Scherf et al.
# Submitted via: ExactAudioCopy v1.1
#
DISCID=640f9817
DTITLE=Rose Maddox - Rose of the West Coast Country
DYEAR=1990
DGENRE=Country
TTITLE0=Philadelphia Lawyer
TTITLE1=Let Those Brown Eyes Smile At Me
TTITLE2=Old Black Choo Choo
TTITLE3=Single Girl
TTITLE4=Dark as a Dungeon
TTITLE5=This Old House
TTITLE6=Sally Let Your Bangs Hang Down
TTITLE7=Rusty Old Halo
TTITLE8=Dream of the Miner's Child
TTITLE9=Ashes of Love
TTITLE10=Silver Threads and Golden Needles
TTITLE11=Foggy Mountain Top
TTITLE12=Amazing Grace
TTITLE13=Rocky Top
TTITLE14=When God Dips His Love In My Heart
TTITLE15=I Can't Feel at Home Anymore
TTITLE16=Farther Along
TTITLE17=I'll Fly Away
TTITLE18=Kneel at the Cross
TTITLE19=Turn Your Radio On
TTITLE20=Beautiful Bouquet
TTITLE21=Take Me in the Lifeboat
TTITLE22=Swing Low Sweet Chariot
EXTD=
EXTT0=
EXTT1=
EXTT2=
EXTT3=
EXTT4=
EXTT5=
EXTT6=
EXTT7=
EXTT8=
EXTT9=
EXTT10=
EXTT11=
EXTT12=
EXTT13=
EXTT14=
EXTT15=
EXTT16=
EXTT17=
EXTT18=
EXTT19=
EXTT20=
EXTT21=
EXTT22=
PLAYORDER=
